<svg width="1200" height="800" viewBox="0 0 1200 800" fill="none" xmlns="http://www.w3.org/2000/svg">
  <defs>
    <linearGradient id="bg" x1="0" y1="0" x2="1" y2="1">
      <stop offset="0%" stop-color="#0F172A"/>
      <stop offset="100%" stop-color="#1F2937"/>
    </linearGradient>
    <linearGradient id="accent" x1="0" y1="0" x2="1" y2="0">
      <stop offset="0%" stop-color="#F59E0B"/>
      <stop offset="100%" stop-color="#FBBF24"/>
    </linearGradient>
  </defs>
  <rect width="1200" height="800" rx="48" fill="url(#bg)"/>
  <rect x="80" y="80" width="1040" height="640" rx="40" fill="#0B1220" opacity="0.55"/>
  <g opacity="0.25">
    <circle cx="260" cy="520" r="120" fill="#111827"/>
    <circle cx="940" cy="520" r="120" fill="#111827"/>
  </g>
  <path d="M220 470C260 370 360 320 520 320H720C860 320 940 360 1000 450L1040 520C1050 540 1034 560 1012 560H188C166 560 150 540 160 520L220 470Z" fill="#1F2937"/>
  <path d="M270 460C300 390 380 360 520 360H720C840 360 910 380 960 440" stroke="url(#accent)" stroke-width="10" stroke-linecap="round"/>
  <rect x="340" y="380" width="200" height="80" rx="18" fill="#0B1220" stroke="#111827"/>
  <rect x="660" y="380" width="200" height="80" rx="18" fill="#0B1220" stroke="#111827"/>
  <g>
    <circle cx="320" cy="560" r="64" fill="#0B1220" stroke="#1F2937" stroke-width="10"/>
    <circle cx="320" cy="560" r="28" fill="#1F2937"/>
    <circle cx="880" cy="560" r="64" fill="#0B1220" stroke="#1F2937" stroke-width="10"/>
    <circle cx="880" cy="560" r="28" fill="#1F2937"/>
  </g>
  <text x="600" y="670" text-anchor="middle" font-family="'Segoe UI', Arial, sans-serif" font-size="32" fill="#94A3B8">Vehicle image coming soon</text>
</svg>
